# xmcd
# 
# Track frame offsets:
#     150
#     25223
#     45583
#     76205
#     106400
#     122285
#     155280
#     173490
# 
# Disc length: 2650
# 
# Revision: 3
# Processed by: cddbd v1.5.2PL0 Copyright (c) Steve Scherf et al.
# Submitted via: fre:ac v1.0.17
# 
DISCID=4d0a5808
DTITLE=Supertramp - Crime Of The Century
DYEAR=1974
DGENRE=Classic Rock
TTITLE0=School
TTITLE1=Bloody Well Right
TTITLE2=Hide In Your Shell
TTITLE3=Asylum
TTITLE4=Dreamer
TTITLE5=Rudy
TTITLE6=If Everyone Was Listening
TTITLE7=Crime Of The Century
EXTD=amazon mp3
EXTT0=
EXTT1=
EXTT2=
EXTT3=
EXTT4=
EXTT5=
EXTT6=
EXTT7=
PLAYORDER=
